<svg xmlns="http://www.w3.org/2000/svg" width="23" height="22" viewBox="0 0 23 22" fill="none">
    <path d="M5.92644 22C5.41968 22 4.91292 21.8404 4.47075 21.5212C3.58642 20.8829 3.23324 19.8031 3.57105 18.7703L4.99121 14.4279C5.08259 14.1487 4.98326 13.8451 4.74419 13.6725L1.02614 10.9887C0.140058 10.3491 -0.212579 9.26309 0.127929 8.22192C0.467089 7.18486 1.39113 6.5147 2.48192 6.5147H7.07765C7.3824 6.5147 7.6363 6.34042 7.72448 6.07068L9.1441 1.70182C9.48241 0.667394 10.407 0 11.5001 0C12.5932 0 13.5177 0.667349 13.8555 1.70022L15.2762 6.07228C15.3639 6.34042 15.6177 6.5147 15.9225 6.5147H20.518C21.6088 6.5147 22.5328 7.18482 22.872 8.22192C23.2126 9.26305 22.86 10.3491 21.9738 10.9887L19.4386 12.8187C19.0372 13.1083 18.4755 13.02 18.1839 12.6213C17.8923 12.2225 17.9813 11.6644 18.3826 11.3747L20.9178 9.54471C21.2915 9.27496 21.2003 8.88619 21.1634 8.77346C21.127 8.66224 20.9731 8.29953 20.518 8.29953H15.9224C14.8416 8.29953 13.8951 7.62549 13.5669 6.62221L12.1462 2.25019C12.0051 1.81853 11.6158 1.78488 11.4999 1.78488C11.384 1.78488 10.9948 1.81853 10.8531 2.2518L9.43349 6.62065C9.1048 7.62554 8.1583 8.29958 7.07752 8.29958H2.48183C2.02682 8.29958 1.87283 8.66228 1.83644 8.7735C1.79956 8.88619 1.70832 9.27501 2.08207 9.54475L5.80012 12.2285C6.67084 12.857 7.03242 13.9625 6.69977 14.9795L5.27961 19.3218C5.13797 19.755 5.43289 20.0095 5.52668 20.0773C5.62043 20.145 5.95519 20.345 6.3262 20.0772L10.0442 17.3935C10.9149 16.765 12.085 16.765 12.9556 17.3936L16.6736 20.0772C17.0445 20.3451 17.3794 20.145 17.4732 20.0773C17.567 20.0095 17.8619 19.755 17.7202 19.3218L16.7481 16.3491C16.5948 15.8803 16.853 15.3769 17.3248 15.2246C17.7965 15.0723 18.3034 15.3288 18.4567 15.7976L19.4289 18.7703C19.7667 19.8031 19.4135 20.883 18.5292 21.5212C17.6449 22.1596 16.5021 22.1595 15.6177 21.5212L11.8997 18.8375C11.6606 18.6648 11.3393 18.6649 11.1003 18.8375L7.38223 21.5212C6.94006 21.8404 6.43325 22 5.92644 22Z" fill="#1D96D5"/>
</svg>